<?xml version="1.0" encoding="UTF-8"?>
<svg width="39px" height="29px" viewBox="0 0 39 29" version="1.1" xmlns="http://www.w3.org/2000/svg" xmlns:xlink="http://www.w3.org/1999/xlink">
    <title>0003DE57-0E52-4BEE-BCD0-6AD8EDE1CA9A@1x</title>
    <defs>
        <filter id="filter-1">
            <feColorMatrix in="SourceGraphic" type="matrix" values="0 0 0 0 0.727266 0 0 0 0 0.312214 0 0 0 0 0.160994 0 0 0 1.000000 0"></feColorMatrix>
        </filter>
    </defs>
    <g id="Page-1" stroke="none" stroke-width="1" fill="none" fill-rule="evenodd">
        <g id="HOME-PAGE-IFCM----V4-" transform="translate(-51.000000, -159.000000)">
            <g id="quotes" transform="translate(31.000000, 159.000000)" filter="url(#filter-1)">
                <g transform="translate(39.500000, 14.500000) scale(-1, -1) translate(-39.500000, -14.500000) translate(20.000000, 0.000000)">
                    <path d="M22,26.3424437 C23.6256831,25.8762058 25.1584699,25.2234727 26.6448087,24.3842444 C28.0846995,23.4983923 29.3387978,22.5192926 30.4071038,21.4469453 C31.4754098,20.3745981 32.3114754,19.1623794 32.9153005,17.903537 C33.5191257,16.5980707 33.8442623,15.2926045 33.8442623,13.9871383 C33.8442623,13.1945338 33.704918,12.4951768 33.3797814,11.8890675 C33.0546448,11.2829582 32.6830601,11.0032154 32.2185792,11.0032154 C31.7540984,11.0032154 31.3825137,11.096463 31.057377,11.2829582 C30.7322404,11.4694534 30.4071038,11.6559486 30.0819672,11.8890675 C29.7568306,12.1221865 29.3852459,12.3086817 28.9672131,12.4951768 C28.5491803,12.681672 27.9918033,12.7749196 27.295082,12.7749196 C25.8551913,12.7749196 24.6010929,12.2154341 23.579235,11.0498392 C22.510929,9.88424437 22,8.39228296 22,6.62057878 C22,4.75562701 22.6967213,3.17041801 24.136612,1.91157556 C25.5765027,0.652733119 27.295082,0 29.3852459,0 C30.7322404,0 31.9863388,0.279742765 33.1010929,0.88585209 C34.2622951,1.49196141 35.284153,2.28456592 36.1666667,3.35691318 C37.0491803,4.38263666 37.7459016,5.59485531 38.2568306,6.94694534 C38.7677596,8.29903537 39,9.79099678 39,11.3762058 C39,13.8472669 38.5355191,16.1318328 37.6530055,18.2299035 C36.7240437,20.3279743 35.5163934,22.1463023 33.9371585,23.6848875 C32.4043716,25.2234727 30.5928962,26.4823151 28.5027322,27.414791 C26.4125683,28.3472669 24.2759563,28.8601286 22,29 L22,26.3424437 Z" id="Path" fill="#000000" fill-rule="nonzero"></path>
                    <path d="M0,26.3424437 C1.62568306,25.8762058 3.15846995,25.2234727 4.64480874,24.3842444 C6.08469945,23.4983923 7.33879781,22.5192926 8.40710383,21.4469453 C9.47540984,20.3745981 10.3114754,19.1623794 10.9153005,17.903537 C11.5191257,16.5980707 11.8442623,15.2926045 11.8442623,13.9871383 C11.8442623,13.1945338 11.704918,12.4951768 11.3797814,11.8890675 C11.0546448,11.2829582 10.6830601,11.0032154 10.2185792,11.0032154 C9.75409836,11.0032154 9.38251366,11.096463 9.05737705,11.2829582 C8.73224044,11.4694534 8.40710383,11.6559486 8.08196721,11.8890675 C7.7568306,12.1221865 7.3852459,12.3086817 6.96721311,12.4951768 C6.54918033,12.681672 5.99180328,12.7749196 5.29508197,12.7749196 C3.85519126,12.7749196 2.6010929,12.2154341 1.57923497,11.0498392 C0.510928962,9.88424437 0,8.39228296 0,6.62057878 C0,4.75562701 0.696721311,3.17041801 2.13661202,1.91157556 C3.57650273,0.652733119 5.29508197,0 7.3852459,0 C8.73224044,0 9.9863388,0.279742765 11.1010929,0.88585209 C12.2622951,1.49196141 13.284153,2.28456592 14.1666667,3.35691318 C15.0491803,4.38263666 15.7459016,5.59485531 16.2568306,6.94694534 C16.7677596,8.29903537 17,9.79099678 17,11.3762058 C17,13.8472669 16.5355191,16.1318328 15.6530055,18.2299035 C14.7240437,20.3279743 13.5163934,22.1463023 11.9371585,23.6848875 C10.4043716,25.2234727 8.59289617,26.4823151 6.50273224,27.414791 C4.41256831,28.3472669 2.27595628,28.8601286 0,29 L0,26.3424437 Z" id="Path" fill="#000000" fill-rule="nonzero"></path>
                </g>
            </g>
        </g>
    </g>
</svg>